# Blender 4.0.2
# www.blender.org
mtllib Box.mtl
o Box
v 1.000000 0.824382 -1.000000
v 1.000000 -0.824382 -1.000000
v 1.000000 0.824382 1.000000
v 1.000000 -0.824382 1.000000
v -1.000000 0.824382 -1.000000
v -1.000000 -0.824382 -1.000000
v -1.000000 0.824382 1.000000
v -1.000000 -0.824382 1.000000
v 0.730082 1.194864 -0.678047
v 0.730082 0.708401 -0.678047
v 0.730082 1.194864 0.678047
v 0.730082 0.708401 0.678047
v -0.066302 1.194864 -0.678047
v -0.066302 0.708401 -0.678047
v -0.066302 1.194864 0.678047
v -0.066302 0.708401 0.678047
v -0.622862 0.778393 0.152551
v -0.622862 1.083496 0.152551
v -0.622862 0.778393 -0.152551
v -0.622862 1.083496 -0.152551
v -0.030859 0.778393 0.152551
v -0.030859 1.083496 0.152551
v -0.030859 0.778393 -0.152551
v -0.030859 1.083496 -0.152551
v -0.622862 0.778393 -0.227251
v -0.622862 1.083496 -0.227251
v -0.622862 0.778393 -0.532354
v -0.622862 1.083496 -0.532354
v -0.030859 0.778393 -0.227251
v -0.030859 1.083496 -0.227251
v -0.030859 0.778393 -0.532354
v -0.030859 1.083496 -0.532354
v -0.622862 0.778393 0.539520
v -0.622862 1.083496 0.539520
v -0.622862 0.778393 0.234417
v -0.622862 1.083496 0.234417
v -0.030859 0.778393 0.539520
v -0.030859 1.083496 0.539520
v -0.030859 0.778393 0.234417
v -0.030859 1.083496 0.234417
v 0.576497 1.304894 -0.562436
v 0.576497 1.076507 -0.562436
v 0.576497 1.304894 0.436851
v 0.576497 1.076507 0.436851
v 0.087282 1.304894 -0.562436
v 0.087282 1.076507 -0.562436
v 0.087282 1.304894 0.436851
v 0.087282 1.076507 0.436851
vn -0.0000 1.0000 -0.0000
vn -0.0000 -0.0000 1.0000
vn -1.0000 -0.0000 -0.0000
vn -0.0000 -1.0000 -0.0000
vn 1.0000 -0.0000 -0.0000
vn -0.0000 -0.0000 -1.0000
vt 0.601628 0.623201
vt 0.280562 0.623201
vt 0.280562 0.302135
vt 0.601628 0.302135
vt 0.601628 0.037454
vt 0.280562 0.037454
vt 0.015881 0.302135
vt 0.015881 0.623201
vt 0.958780 0.968929
vt 0.637714 0.968929
vt 0.637714 0.647863
vt 0.958780 0.647863
vt 0.866309 0.623201
vt 0.866309 0.302135
vt 0.280562 0.887882
vt 0.601628 0.887882
vt 0.696122 0.216264
vt 0.696122 0.088418
vt 0.913820 0.088418
vt 0.913820 0.216264
vt 0.991913 0.216264
vt 0.991913 0.088418
vt 0.913820 0.010325
vt 0.696122 0.010325
vt 0.696122 0.294357
vt 0.913820 0.294357
vt 0.618029 0.088418
vt 0.618029 0.216264
vt 0.112621 0.684268
vt 0.161600 0.684268
vt 0.161600 0.733247
vt 0.112621 0.733247
vt 0.161600 0.782226
vt 0.256636 0.733247
vt 0.256636 0.782226
vt 0.256636 0.635289
vt 0.256636 0.684268
vt 0.161600 0.635289
vt 0.113182 0.894309
vt 0.162161 0.894309
vt 0.162161 0.943288
vt 0.113182 0.943288
vt 0.162161 0.992267
vt 0.257197 0.943288
vt 0.257197 0.992267
vt 0.257197 0.845330
vt 0.257197 0.894309
vt 0.162161 0.845330
vt 0.013195 0.790656
vt 0.062174 0.790656
vt 0.062174 0.839635
vt 0.013195 0.839635
vt 0.062174 0.888614
vt 0.157210 0.839635
vt 0.157210 0.888614
vt 0.157210 0.741677
vt 0.157210 0.790656
vt 0.062174 0.741677
vt 0.184453 0.233058
vt 0.105917 0.233058
vt 0.105917 0.072640
vt 0.184453 0.072640
vt 0.184453 0.035976
vt 0.105917 0.035976
vt 0.069254 0.072640
vt 0.069254 0.233058
vt 0.221116 0.233058
vt 0.221116 0.072640
vt 0.105917 0.269722
vt 0.184453 0.269722
s 0
usemtl Material
f 1/1/1 5/2/1 7/3/1 3/4/1
f 4/5/2 3/4/2 7/3/2 8/6/2
f 8/7/3 7/3/3 5/2/3 6/8/3
f 6/9/4 2/10/4 4/11/4 8/12/4
f 2/13/5 1/1/5 3/4/5 4/14/5
f 6/15/6 5/2/6 1/1/6 2/16/6
f 9/17/1 13/18/1 15/19/1 11/20/1
f 12/21/2 11/20/2 15/19/2 16/22/2
f 16/23/3 15/19/3 13/18/3 14/24/3
f 10/25/5 9/17/5 11/20/5 12/26/5
f 14/27/6 13/18/6 9/17/6 10/28/6
f 17/29/3 18/30/3 20/31/3 19/32/3
f 19/33/6 20/31/6 24/34/6 23/35/6
f 21/36/2 22/37/2 18/30/2 17/38/2
f 24/34/1 20/31/1 18/30/1 22/37/1
f 25/39/3 26/40/3 28/41/3 27/42/3
f 27/43/6 28/41/6 32/44/6 31/45/6
f 29/46/2 30/47/2 26/40/2 25/48/2
f 32/44/1 28/41/1 26/40/1 30/47/1
f 33/49/3 34/50/3 36/51/3 35/52/3
f 35/53/6 36/51/6 40/54/6 39/55/6
f 37/56/2 38/57/2 34/50/2 33/58/2
f 40/54/1 36/51/1 34/50/1 38/57/1
f 41/59/1 45/60/1 47/61/1 43/62/1
f 44/63/2 43/62/2 47/61/2 48/64/2
f 48/65/3 47/61/3 45/60/3 46/66/3
f 42/67/5 41/59/5 43/62/5 44/68/5
f 46/69/6 45/60/6 41/59/6 42/70/6
