# Blender 4.0.2
# www.blender.org
mtllib House3.mtl
o House3
v 0.577179 0.000000 -1.235701
v 0.577179 1.638507 -1.235701
v 0.577179 0.000000 -4.194748
v 0.577179 1.638507 -4.194748
v 1.767071 0.054522 -1.535383
v 1.767071 1.431375 -1.535383
v 1.767071 0.054522 -3.895065
v 1.767071 1.431375 -3.895065
v -2.624476 0.000000 -4.194748
v -2.624476 0.000000 -1.235701
v -2.624476 1.638507 -1.235701
v -2.624476 1.638507 -4.194748
v 0.577179 0.000000 1.178056
v 0.577179 1.638507 1.178056
v -2.624476 0.000000 1.178056
v -2.624476 1.638507 1.178056
v 0.577179 0.000000 3.855756
v 0.577179 1.638507 3.855756
v -2.624476 0.000000 3.855756
v -2.624476 1.638507 3.855756
v 1.278004 0.000000 1.178056
v 1.278004 1.638507 1.178056
v 1.278004 0.000000 3.855756
v 1.278004 1.638507 3.855756
v 1.767071 1.638507 -4.194748
v 1.767071 0.000000 -4.194748
v 1.767071 0.000000 -1.235701
v 1.767071 1.638507 -1.235701
v 1.677664 1.431375 -3.895065
v 1.677664 0.054522 -3.895065
v 1.677664 0.054522 -1.535383
v 1.677664 1.431375 -1.535383
v -1.259241 2.753079 -1.235701
v -1.259241 2.753079 -4.194748
v -1.259241 2.753079 1.178056
v -1.259241 2.753079 3.855756
v -0.086749 2.055074 2.482865
v 0.028652 2.009096 -2.749266
v 1.278004 2.068779 2.516906
v 1.767071 2.022800 -2.715224
vn -0.0000 -0.0000 -1.0000
vn -0.0000 -0.0000 1.0000
vn -0.0074 0.9693 0.2458
vn -1.0000 -0.0000 -0.0000
vn 1.0000 -0.0000 -0.0000
vn -0.0000 1.0000 -0.0000
vn -0.0000 -1.0000 -0.0000
vn 0.5188 0.8549 -0.0000
vn -0.6324 0.7746 -0.0000
vn -0.0013 0.9522 -0.3054
vn -0.0113 0.9537 0.3006
vn 0.5188 0.8548 -0.0089
vn 0.5188 0.8548 0.0085
vn 0.5115 0.8593 -0.0000
vn -0.0016 0.9682 -0.2502
vn 0.5187 0.8547 -0.0223
vn 0.5002 0.8659 -0.0000
vn 0.5187 0.8547 0.0213
vt 0.701080 0.156207
vt 0.701080 0.009038
vt 0.988649 0.009038
vt 0.988649 0.156207
vt 0.594205 0.156207
vt 0.594205 0.009038
vt 0.970469 0.337170
vt 0.970469 0.460837
vt 0.962439 0.460837
vt 0.962439 0.337170
vt 0.678631 0.170532
vt 0.678631 0.317701
vt 0.571756 0.317701
vt 0.571756 0.170532
vt 0.716377 0.639491
vt 0.721362 0.534821
vt 0.858588 0.541357
vt 0.854502 0.700552
vt 0.028788 0.478986
vt 0.175957 0.478986
vt 0.175957 0.744764
vt 0.028788 0.744764
vt 0.354955 0.317701
vt 0.354955 0.170532
vt 0.028788 0.262185
vt 0.175957 0.262185
vt 0.251279 0.042346
vt 0.538848 0.042346
vt 0.416224 0.142456
vt 0.624271 0.337726
vt 0.624271 0.484895
vt 0.336701 0.484895
vt 0.336701 0.337726
vt 0.028788 0.021677
vt 0.175957 0.021677
vt 0.209113 0.516638
vt 0.209113 0.229068
vt 0.309223 0.394014
vt 0.252238 0.843892
vt 0.252238 0.991060
vt 0.011730 0.991060
vt 0.011730 0.843892
vt 0.687218 0.337726
vt 0.687218 0.484895
vt 0.292008 0.317701
vt 0.292008 0.170532
vt 0.967097 0.301809
vt 0.967097 0.178142
vt 0.994015 0.173245
vt 0.994015 0.320414
vt 0.755153 0.178142
vt 0.728236 0.173245
vt 0.755153 0.301809
vt 0.728236 0.320414
vt 0.750495 0.460837
vt 0.750495 0.337170
vt 0.742464 0.460837
vt 0.742464 0.337170
vt 0.750495 0.329140
vt 0.962439 0.329140
vt 0.962439 0.468868
vt 0.750495 0.468868
vt 0.726529 0.483666
vt 0.992307 0.483666
vt 0.859418 0.528087
vt 0.502776 0.639113
vt 0.717903 0.830334
vt 0.500847 0.830514
vt 0.716700 0.988360
vt 0.502221 0.988356
vt 0.981067 0.992916
vt 0.983780 0.835458
vt 0.263917 0.992916
vt 0.260512 0.836188
vt 0.498736 0.577880
vt 0.376610 0.711770
vt 0.372583 0.586201
vt 0.246185 0.647410
vt 0.246241 0.586086
vt 0.250641 0.514587
vt 0.491149 0.514587
vt 0.370895 0.563138
vt 0.995955 0.541892
vt 0.995547 0.646669
s 0
usemtl Material.002
f 4/1/1 3/2/1 9/3/1 12/4/1
f 3/2/1 4/1/1 25/5/1 26/6/1
f 7/7/2 8/8/2 29/9/2 30/10/2
f 27/11/2 28/12/2 2/13/2 1/14/2
f 2/15/3 28/16/3 40/17/3 38/18/3
f 10/19/4 11/20/4 12/21/4 9/22/4
f 1/14/5 2/13/5 14/23/5 13/24/5
f 11/20/4 10/19/4 15/25/4 16/26/4
f 4/27/1 12/28/1 34/29/1
f 17/30/2 18/31/2 20/32/2 19/33/2
f 16/26/4 15/25/4 19/34/4 20/35/4
f 20/36/2 18/37/2 36/38/2
f 21/39/5 22/40/5 24/41/5 23/42/5
f 18/31/2 17/30/2 23/43/2 24/44/2
f 13/24/1 14/23/1 22/45/1 21/46/1
f 8/47/5 7/48/5 26/49/5 25/50/5
f 7/48/5 5/51/5 27/52/5 26/49/5
f 6/53/5 8/47/5 25/50/5 28/54/5
f 5/51/5 6/53/5 28/54/5 27/52/5
f 30/10/5 29/9/5 32/55/5 31/56/5
f 6/57/1 5/58/1 31/56/1 32/55/1
f 5/59/6 7/60/6 30/10/6 31/56/6
f 8/61/7 6/62/7 32/55/7 29/9/7
f 28/63/5 25/64/5 40/65/5
f 14/66/8 2/15/8 33/67/8 35/68/8
f 11/69/9 16/70/9 35/68/9 33/67/9
f 12/71/9 11/69/9 33/67/9 34/72/9
f 16/70/9 20/73/9 36/74/9 35/68/9
f 22/75/10 14/66/10 37/76/10 39/77/10
f 18/78/11 24/79/11 39/77/11 37/76/11
f 24/80/5 22/81/5 39/82/5
f 35/68/12 37/76/12 14/66/12
f 18/78/13 37/76/13 36/74/13
f 35/68/14 36/74/14 37/76/14
f 25/83/15 4/84/15 38/18/15 40/17/15
f 4/84/16 34/72/16 38/18/16
f 34/72/17 33/67/17 38/18/17
f 2/15/18 38/18/18 33/67/18
