# Blender 4.0.2
# www.blender.org
mtllib House2.mtl
o House2
v -2.088152 0.000000 3.677047
v -2.088152 1.537104 3.677047
v -2.088152 0.000000 -3.861876
v -2.088152 1.537104 -3.861876
v 1.073602 0.000000 3.677047
v 1.073602 1.537104 3.677047
v 1.073602 0.000000 -3.861876
v 1.073602 1.537104 -3.861876
v -2.088152 0.000000 -1.135278
v -2.088152 1.537104 -1.135278
v 1.073602 0.000000 -1.135278
v 1.073602 1.537104 -1.135278
v -2.088151 1.537104 -1.657243
v 1.073602 0.000000 -1.657247
v -2.088152 0.000000 -1.657247
v 1.073602 1.537104 -1.657247
v 1.437953 1.537104 -3.861876
v 1.437952 0.022016 -3.763141
v 1.437952 0.022016 -1.755981
v 1.437953 1.537104 -1.657247
v -2.088152 1.312451 3.677047
v -2.088152 1.312451 -3.861876
v 1.073602 1.312451 -3.861876
v 1.073602 1.312451 3.677047
v 1.073602 1.312451 -1.135278
v -2.088152 1.312451 -1.135278
v 1.073602 1.312451 -1.657247
v -2.088152 1.312451 -1.657247
v 1.437952 1.136997 -3.763141
v 1.437952 1.136997 -1.755981
v 1.914160 1.537104 -1.135278
v 1.914160 1.537104 3.677047
v 1.914160 1.312451 3.677047
v 1.914160 1.312451 -1.135278
v -0.086996 3.259066 3.677047
v -0.086996 3.259066 -1.135278
v -0.507275 2.896468 -1.135283
v -0.507275 2.896468 -1.657243
v 1.073602 2.896468 -2.759561
v -0.507275 2.896468 -2.759561
v 1.437953 2.896468 -2.759561
v 1.437952 1.312451 -3.861876
v 1.437952 0.000000 -3.861876
v 1.437952 0.000000 -1.657247
v 1.437952 1.312451 -1.657247
v 1.322288 1.136997 -3.763141
v 1.322288 0.022016 -3.763141
v 1.322288 0.022016 -1.755981
v 1.322288 1.136997 -1.755981
v -2.088152 0.000000 3.394942
v -2.088152 1.537104 3.394942
v 1.073602 0.000000 3.394942
v -2.088152 1.312451 3.394942
v 1.073602 1.312451 3.394942
v 1.914160 1.537104 3.394942
v 1.914160 1.312451 3.394942
v -0.086996 3.259066 3.394942
v -2.088152 1.537104 -0.861275
v 1.073602 0.000000 -0.861275
v -2.088152 1.312451 -0.861275
v -0.086996 3.259066 -0.861275
v -2.088152 0.000000 -0.861274
v 1.073602 1.312451 -0.861274
v 1.914160 1.537104 -0.861274
v 1.914160 1.312451 -0.861274
v 1.675972 1.312451 -1.135278
v 1.675972 1.312451 3.677047
v 1.675972 1.537104 -1.135278
v 1.675972 1.537104 3.677047
v 1.675972 1.312451 3.394942
v 1.675972 1.312451 -0.861274
v 1.914160 0.000000 3.394942
v 1.914160 0.000000 3.677047
v 1.675972 0.000000 -1.135278
v 1.914160 0.000000 -1.135278
v 1.675972 0.000000 3.394942
v 1.914160 0.000000 -0.861274
v 1.675972 0.000000 -0.861274
v 1.675972 0.000000 3.677047
vn -1.0000 -0.0000 -0.0000
vn -0.0000 -0.0000 -1.0000
vn -0.0000 -0.0000 1.0000
vn -0.6520 0.7582 -0.0000
vn 1.0000 -0.0000 -0.0000
vn -0.0000 0.6298 -0.7767
vn -0.0000 0.6298 0.7767
vn 0.6522 0.7580 -0.0000
vn -0.6523 0.7580 -0.0000
vn 0.6520 0.7582 -0.0000
vn -0.0000 -1.0000 -0.0000
vn -0.0000 1.0000 -0.0000
vn 0.6523 0.7580 -0.0000
vt 0.515823 0.123531
vt 0.515823 0.143382
vt 0.321013 0.143382
vt 0.321013 0.123531
vt 0.041627 0.143382
vt 0.041627 0.123531
vt 0.918694 0.787469
vt 0.894482 0.787469
vt 0.894482 0.671495
vt 0.918694 0.671495
vt 0.715506 0.273298
vt 0.715506 0.293149
vt 0.436120 0.293149
vt 0.436120 0.273298
vt 0.815804 0.200801
vt 0.967964 0.098246
vt 0.967964 0.377632
vt 0.739720 0.594081
vt 0.785843 0.594080
vt 0.785842 0.778316
vt 0.739720 0.778316
vt 0.740562 0.561029
vt 0.740562 0.580880
vt 0.694439 0.580880
vt 0.694439 0.561029
vt 0.035095 0.273298
vt 0.035095 0.293149
vt 0.010883 0.293149
vt 0.010883 0.273298
vt 0.438120 0.886790
vt 0.449154 0.856545
vt 0.594437 0.909548
vt 0.583403 0.939794
vt 0.561946 0.123531
vt 0.561946 0.143382
vt 0.669686 0.418642
vt 0.669686 0.438494
vt 0.474876 0.438494
vt 0.474876 0.418642
vt 0.739720 0.962551
vt 0.728685 0.992797
vt 0.009431 0.143382
vt 0.009431 0.123531
vt 0.740562 0.445055
vt 0.772757 0.445055
vt 0.772757 0.561029
vt 0.772757 0.580880
vt 0.041627 0.007557
vt 0.009431 0.007557
vt 0.686693 0.419287
vt 0.686693 0.320763
vt 0.696913 0.320763
vt 0.696913 0.419287
vt 0.561946 0.007557
vt 0.515823 0.007557
vt 0.035095 0.157324
vt 0.010883 0.157324
vt 0.694439 0.445055
vt 0.715506 0.157324
vt 0.436120 0.157324
vt 0.028877 0.305900
vt 0.028877 0.421873
vt 0.003949 0.421873
vt 0.003949 0.305900
vt 0.321013 0.007557
vt 0.896695 0.949159
vt 0.896695 0.969011
vt 0.871767 0.969011
vt 0.871767 0.949159
vt 0.894482 0.807321
vt 0.873435 0.807321
vt 0.873435 0.787469
vt 0.967964 0.045018
vt 0.850720 0.969011
vt 0.850720 0.949159
vt 0.028664 0.528711
vt 0.028664 0.761996
vt 0.003736 0.761996
vt 0.003736 0.528711
vt 0.028664 0.995280
vt 0.003736 0.995280
vt 0.785843 0.962551
vt 0.642314 0.778316
vt 0.544909 0.594080
vt 0.672562 0.455745
vt 0.575549 0.576181
vt 0.477753 0.456381
vt 0.660962 0.403138
vt 0.660962 0.304614
vt 0.669686 0.302669
vt 0.483601 0.304614
vt 0.474876 0.302669
vt 0.483601 0.403138
vt 0.874275 0.320763
vt 0.874275 0.419287
vt 0.884495 0.320763
vt 0.884495 0.419287
vt 0.874275 0.429508
vt 0.696913 0.429508
vt 0.696913 0.310542
vt 0.874275 0.310542
vt 0.404761 0.995280
vt 0.404761 0.761996
vt 0.404761 0.528711
vt 0.404974 0.496148
vt 0.404974 0.516000
vt 0.028877 0.516000
vt 0.028877 0.496148
vt 0.404974 0.305900
vt 0.404974 0.421873
vt 0.411192 0.273298
vt 0.411192 0.157324
vt 0.411192 0.293149
vt 0.850720 0.833186
vt 0.871767 0.833186
vt 0.429186 0.305900
vt 0.429186 0.421873
vt 0.849223 0.807321
vt 0.849223 0.787469
vt 0.428974 0.528711
vt 0.428974 0.761996
vt 0.428974 0.995280
vt 0.028877 0.475101
vt 0.404974 0.475101
vt 0.003949 0.475101
vt 0.768734 0.273298
vt 0.768734 0.293149
vt 0.449037 0.421873
vt 0.449037 0.475101
vt 0.429186 0.475101
vt 0.967964 0.023971
vt 0.933966 0.008919
vt 0.757136 0.161078
vt 0.912919 0.008919
vt 0.859691 0.008919
vt 0.580305 0.008919
vt 0.828175 0.787469
vt 0.828175 0.671495
vt 0.849223 0.671495
vt 0.873435 0.671495
vt 0.825792 0.949159
vt 0.825792 0.833186
vt 0.896695 0.833186
vt 0.917743 0.949159
vt 0.917743 0.833186
s 0
usemtl Material.003
f 28/1/1 13/2/1 4/3/1 22/4/1
f 22/4/2 4/3/2 8/5/2 23/6/2
f 71/7/1 66/8/1 74/9/1 78/10/1
f 24/11/3 6/12/3 2/13/3 21/14/3
f 36/15/2 12/16/2 10/17/2
f 13/18/4 10/19/4 37/20/4 38/21/4
f 27/22/5 16/23/5 12/24/5 25/25/5
f 60/26/1 58/27/1 10/28/1 26/29/1
f 17/30/6 8/31/6 39/32/6 41/33/6
f 26/34/1 10/35/1 13/2/1 28/1/1
f 42/36/5 17/37/5 20/38/5 45/39/5
f 16/40/7 20/41/7 41/33/7 39/32/7
f 23/6/2 8/5/2 17/42/2 42/43/2
f 27/22/3 14/44/3 44/45/3 45/46/3
f 16/23/3 27/22/3 45/46/3 20/47/3
f 7/48/2 23/6/2 42/43/2 43/49/2
f 30/50/2 19/51/2 48/52/2 49/53/2
f 9/54/1 26/34/1 28/1/1 15/55/1
f 62/56/1 60/26/1 26/29/1 9/57/1
f 14/44/5 27/22/5 25/25/5 11/58/5
f 5/59/3 24/11/3 21/14/3 1/60/3
f 52/61/5 54/62/5 24/63/5 5/64/5
f 3/65/2 22/4/2 23/6/2 7/48/2
f 15/55/1 28/1/1 22/4/1 3/65/1
f 56/66/5 55/67/5 32/68/5 33/69/5
f 66/8/2 68/70/2 31/71/2 34/72/2
f 36/15/2 68/73/2 12/16/2
f 69/74/3 67/75/3 33/69/3 32/68/3
f 55/76/8 57/77/8 35/78/8 32/79/8
f 51/80/9 2/81/9 35/78/9 57/77/9
f 16/40/10 38/21/10 37/20/10 12/82/10
f 16/40/7 39/32/7 40/83/7
f 38/21/10 16/40/10 40/83/10
f 4/84/4 13/18/4 38/21/4 40/83/4
f 4/84/6 40/83/6 39/32/6 8/31/6
f 17/85/5 41/86/5 20/87/5
f 29/88/5 18/89/5 43/90/5 42/36/5
f 18/89/5 19/91/5 44/92/5 43/90/5
f 19/91/5 30/93/5 45/39/5 44/92/5
f 30/93/5 29/88/5 42/36/5 45/39/5
f 47/94/5 46/95/5 49/53/5 48/52/5
f 18/96/3 29/97/3 46/95/3 47/94/3
f 29/98/11 30/99/11 49/53/11 46/95/11
f 19/100/12 18/101/12 47/94/12 48/52/12
f 58/102/9 51/80/9 57/77/9 61/103/9
f 64/104/13 61/103/13 57/77/13 55/76/13
f 65/105/5 64/106/5 55/107/5 56/108/5
f 59/109/5 63/110/5 54/62/5 52/61/5
f 1/60/1 21/14/1 53/111/1 50/112/1
f 21/14/1 2/13/1 51/113/1 53/111/1
f 33/69/3 67/75/3 79/114/3 73/115/3
f 11/116/5 25/117/5 63/110/5 59/109/5
f 34/72/5 31/71/5 64/118/5 65/119/5
f 31/120/8 36/121/8 61/103/8 64/104/8
f 10/122/9 58/102/9 61/103/9 36/121/9
f 50/112/1 53/111/1 60/26/1 62/56/1
f 53/111/1 51/113/1 58/27/1 60/26/1
f 70/123/11 71/124/11 65/105/11 56/108/11
f 54/62/11 63/110/11 71/124/11 70/123/11
f 24/63/11 54/62/11 70/123/11 67/125/11
f 6/12/3 24/11/3 67/126/3 69/127/3
f 25/117/2 12/128/2 68/129/2 66/130/2
f 63/110/11 25/117/11 66/130/11 71/124/11
f 68/73/2 36/15/2 31/131/2
f 32/132/3 35/133/3 69/134/3
f 69/134/3 35/133/3 6/135/3
f 2/136/3 6/135/3 35/133/3
f 65/119/3 71/137/3 78/138/3 77/139/3
f 66/8/2 34/72/2 75/140/2 74/9/2
f 34/72/5 65/119/5 77/139/5 75/140/5
f 67/75/1 70/141/1 76/142/1 79/114/1
f 56/66/5 33/69/5 73/115/5 72/143/5
f 70/144/2 56/66/2 72/143/2 76/145/2
