# Blender 3.4.1
# www.blender.org
mtllib MailTruck_Wheel.mtl
o MailTruck_Wheel
v -0.000000 0.301034 -0.245467
v 0.212865 0.212862 -0.245467
v 0.301036 -0.000003 -0.245467
v 0.212864 -0.212868 -0.245467
v -0.000000 -0.301039 -0.245467
v -0.212866 -0.212868 -0.245467
v -0.301038 -0.000003 -0.245467
v -0.212866 0.212863 -0.245467
v 0.335441 0.335438 -0.245467
v -0.000000 0.474382 -0.245467
v 0.474384 -0.000002 -0.245467
v 0.335440 -0.335444 -0.245467
v -0.000000 -0.474387 -0.245467
v -0.335441 -0.335443 -0.245467
v -0.474385 -0.000003 -0.245467
v -0.335441 0.335438 -0.245467
v 0.335440 0.335438 0.208570
v -0.000000 0.474382 0.208570
v 0.474384 -0.000003 0.208570
v 0.335440 -0.335444 0.208570
v -0.000000 -0.474387 0.208570
v -0.335440 -0.335443 0.208570
v -0.474385 -0.000003 0.208570
v -0.335441 0.335437 0.208570
v 0.212865 0.212862 -0.136575
v -0.000000 0.301034 -0.136575
v 0.301036 -0.000003 -0.136575
v 0.212864 -0.212868 -0.136575
v -0.000000 -0.301039 -0.136575
v -0.212866 -0.212868 -0.136575
v -0.301038 -0.000003 -0.136575
v -0.212866 0.212862 -0.136575
v -0.000001 -0.000003 -0.136575
v 0.000000 -0.000003 0.208570
vn -0.0000 -0.0000 1.0000
vn -0.0000 -0.0000 -1.0000
vn -0.3827 -0.9239 -0.0000
vn 0.9239 0.3827 -0.0000
vn -0.9239 0.3827 -0.0000
vn 0.9239 -0.3827 -0.0000
vn 0.3827 0.9239 -0.0000
vn -0.3827 0.9239 -0.0000
vn -0.9239 -0.3827 -0.0000
vn 0.3827 -0.9239 -0.0000
vt 0.802000 0.207732
vt 0.836646 0.413869
vt 0.802000 0.368091
vt 0.858513 0.413869
vt 0.802000 0.225954
vt 0.873091 0.428447
vt 0.802000 0.247821
vt 0.873091 0.446669
vt 0.802000 0.266044
vt 0.858513 0.461247
vt 0.802000 0.287911
vt 0.836646 0.461247
vt 0.802000 0.306134
vt 0.822068 0.446669
vt 0.802000 0.328001
vt 0.822068 0.428447
vt 0.802000 0.346223
vt 0.742022 0.313302
vt 0.862158 0.399291
vt 0.833002 0.399291
vt 0.742022 0.284146
vt 0.742022 0.346103
vt 0.884025 0.421158
vt 0.884025 0.453958
vt 0.742022 0.378903
vt 0.742022 0.411704
vt 0.862158 0.475826
vt 0.742022 0.156587
vt 0.833002 0.475826
vt 0.742022 0.189388
vt 0.807490 0.453958
vt 0.742022 0.218544
vt 0.807490 0.421158
vt 0.742022 0.251345
vt 0.885959 0.524160
vt 0.782112 0.313302
vt 0.885959 0.491360
vt 0.782112 0.284146
vt 0.907826 0.546028
vt 0.782112 0.346103
vt 0.940627 0.546028
vt 0.782112 0.378903
vt 0.962494 0.524160
vt 0.782112 0.156587
vt 0.782112 0.411704
vt 0.962494 0.491360
vt 0.782112 0.189388
vt 0.940627 0.469493
vt 0.782112 0.218544
vt 0.907826 0.469493
vt 0.782112 0.251345
vt 0.826978 0.480072
vt 0.791066 0.225954
vt 0.808755 0.498295
vt 0.791066 0.207732
vt 0.791066 0.368091
vt 0.856134 0.480072
vt 0.791066 0.247821
vt 0.874357 0.498295
vt 0.791066 0.266044
vt 0.874357 0.527451
vt 0.791066 0.287911
vt 0.856134 0.545674
vt 0.791066 0.306134
vt 0.826978 0.545674
vt 0.791066 0.328001
vt 0.808755 0.527451
vt 0.791066 0.346223
vt 0.841556 0.512873
vt 0.924227 0.507760
s 0
usemtl Material.001
f 17/35/1 18/37/1 34/70/1
f 25/52/2 27/57/2 33/69/2
f 2/5/3 26/55/3 1/1/3
f 17/36/4 11/22/4 9/18/4
f 7/14/2 16/33/2 8/16/2
f 13/27/2 6/12/2 5/10/2
f 3/6/2 12/24/2 4/8/2
f 10/20/2 2/4/2 1/2/2
f 8/16/2 10/20/2 1/2/2
f 6/12/2 15/31/2 7/14/2
f 4/8/2 13/27/2 5/10/2
f 2/4/2 11/23/2 3/6/2
f 15/32/5 24/51/5 16/34/5
f 13/28/3 22/47/3 14/30/3
f 19/40/6 12/25/6 11/22/6
f 10/21/7 17/36/7 9/18/7
f 16/34/8 18/38/8 10/21/8
f 14/30/9 23/49/9 15/32/9
f 12/25/10 21/45/10 13/26/10
f 26/56/10 8/17/10 1/3/10
f 7/15/4 30/64/4 6/13/4
f 29/62/8 4/9/8 5/11/8
f 27/58/9 2/5/9 3/7/9
f 32/68/6 7/15/6 8/17/6
f 6/13/7 29/62/7 5/11/7
f 28/60/5 3/7/5 4/9/5
f 27/57/2 28/59/2 33/69/2
f 28/59/2 29/61/2 33/69/2
f 29/61/2 30/63/2 33/69/2
f 30/63/2 31/65/2 33/69/2
f 31/65/2 32/67/2 33/69/2
f 32/67/2 26/54/2 33/69/2
f 26/54/2 25/52/2 33/69/2
f 18/37/1 24/50/1 34/70/1
f 24/50/1 23/48/1 34/70/1
f 23/48/1 22/46/1 34/70/1
f 22/46/1 21/43/1 34/70/1
f 21/43/1 20/41/1 34/70/1
f 20/41/1 19/39/1 34/70/1
f 19/39/1 17/35/1 34/70/1
f 2/5/3 25/53/3 26/55/3
f 17/36/4 19/40/4 11/22/4
f 7/14/2 15/31/2 16/33/2
f 13/27/2 14/29/2 6/12/2
f 3/6/2 11/23/2 12/24/2
f 10/20/2 9/19/2 2/4/2
f 8/16/2 16/33/2 10/20/2
f 6/12/2 14/29/2 15/31/2
f 4/8/2 12/24/2 13/27/2
f 2/4/2 9/19/2 11/23/2
f 15/32/5 23/49/5 24/51/5
f 13/28/3 21/44/3 22/47/3
f 19/40/6 20/42/6 12/25/6
f 10/21/7 18/38/7 17/36/7
f 16/34/8 24/51/8 18/38/8
f 14/30/9 22/47/9 23/49/9
f 12/25/10 20/42/10 21/45/10
f 26/56/10 32/68/10 8/17/10
f 7/15/4 31/66/4 30/64/4
f 29/62/8 28/60/8 4/9/8
f 27/58/9 25/53/9 2/5/9
f 32/68/6 31/66/6 7/15/6
f 6/13/7 30/64/7 29/62/7
f 28/60/5 27/58/5 3/7/5
