# Blender 3.4.1
# www.blender.org
mtllib MailTruck_Shell.mtl
o MailTruck_Shell
v 1.251695 2.536971 1.482349
v 1.251695 2.061859 1.266222
v 1.251695 2.536971 1.266222
v 1.385951 2.536971 1.482349
v 1.385951 2.061859 1.266222
v 1.385951 2.536971 1.266222
v 1.251695 2.608401 1.419562
v 1.251695 2.608401 1.266222
v 1.385951 2.608401 1.266222
v 1.385951 2.608401 1.419562
v 1.251695 2.536971 1.154959
v 1.385951 2.536971 1.154959
v 1.251695 2.608401 1.154959
v 1.385951 2.608401 1.154959
v 1.251695 2.061859 1.410052
v 1.251695 2.140115 1.482349
v 1.385951 2.140115 1.482349
v 1.385951 2.061859 1.410052
v 1.251695 2.140115 1.266222
v 1.385951 2.140115 1.266222
v 1.251695 2.536971 -1.482349
v 1.251695 2.061859 -1.266222
v 1.251695 2.536971 -1.266222
v 1.385951 2.536971 -1.482349
v 1.385951 2.061859 -1.266222
v 1.385951 2.536971 -1.266222
v 1.251695 2.608401 -1.419562
v 1.251695 2.608401 -1.266222
v 1.385951 2.608401 -1.266222
v 1.385951 2.608401 -1.419562
v 1.251695 2.536971 -1.154959
v 1.385951 2.536971 -1.154959
v 1.251695 2.608401 -1.154959
v 1.385951 2.608401 -1.154959
v 1.251695 2.061859 -1.410052
v 1.251695 2.140115 -1.482349
v 1.385951 2.140115 -1.482349
v 1.385951 2.061859 -1.410052
v 1.251695 2.140115 -1.266222
v 1.385951 2.140115 -1.266222
v 3.073951 1.181277 1.139377
v 3.244440 0.783468 1.139377
v 3.519120 0.549832 0.979346
v 3.459133 0.761366 1.063678
v 2.145727 1.408597 1.181604
v 1.912719 1.441397 1.062542
v 1.439144 2.560313 1.062543
v 1.069745 3.161413 1.181604
v -2.929274 3.194148 1.181605
v -3.129645 0.924488 1.041524
v -3.419628 0.794858 1.181605
v -3.419629 0.535965 1.181605
v -3.137374 0.464537 1.181604
v -2.103065 0.308645 1.181604
v -1.002685 0.410166 1.183389
v -1.892500 0.998983 1.181604
v -1.231839 0.998267 1.181604
v 1.772623 0.423804 1.183389
v 2.793160 0.361054 1.181604
v 3.002295 0.347415 1.181604
v 3.034119 0.488353 1.181604
v 1.870240 0.897531 1.181604
v 2.574933 0.942995 1.181604
v 0.420340 0.416985 1.183389
v -0.929764 3.177781 1.181605
v 0.299129 3.169597 1.181604
v 3.073951 1.181277 -0.000000
v 3.244441 0.783467 -0.000000
v 3.519120 0.549832 -0.000001
v 3.459133 0.761366 -0.000001
v 2.145726 1.408597 -0.000000
v 2.013124 1.351768 -0.000000
v 1.444823 2.710562 -0.000000
v 1.069744 3.161413 -0.000000
v -2.929274 3.194148 0.000000
v -3.230196 0.807487 0.000000
v -3.419629 0.794858 0.000000
v -3.419629 0.535965 0.000000
v -3.137374 0.464537 0.000000
v -2.103065 0.308645 -0.000000
v -1.048552 0.366614 -0.000000
v -1.892500 0.998983 -0.000000
v -1.231839 0.998267 -0.000000
v 1.726756 0.380254 -0.000000
v 2.793160 0.361055 -0.000000
v 3.002295 0.347415 -0.000000
v 3.034120 0.488354 -0.000000
v 1.870240 0.897531 -0.000000
v 2.574933 0.942995 -0.000000
v 0.374472 0.373434 -0.000000
v -0.929764 3.177781 -0.000000
v 0.299129 3.169597 -0.000000
v -1.929519 3.185964 1.181605
v -1.929519 3.185964 -0.000000
v 2.013123 1.351768 1.181604
v 1.444823 2.710562 1.181604
v 1.439144 2.560314 -0.000000
v 1.912719 1.441397 -0.000000
v -0.932919 1.486494 1.183389
v 1.619447 1.486494 1.181604
v -3.056842 1.464674 1.041525
v -1.921095 2.714444 1.181605
v 1.374700 1.486494 1.183389
v -1.897916 1.486494 1.181604
v 0.323707 1.486494 1.183389
v -2.890374 2.807861 1.041525
v -2.956881 2.968813 0.000000
v -0.930596 2.713302 1.181604
v 1.148500 2.710903 1.181604
v 0.305548 2.711875 1.181604
v -3.138656 1.486494 1.181604
v -3.230195 0.807487 1.181605
v -2.955822 2.968812 1.181605
v -3.129645 0.924488 0.000000
v -3.056800 1.464669 0.000000
v -2.891345 2.807872 0.000000
v 0.323707 1.486494 1.106029
v -0.932919 1.486494 1.106029
v 1.374700 1.486494 1.106029
v -0.930597 2.713303 1.106029
v 1.148500 2.710903 1.106029
v 0.305548 2.711875 1.106029
v 3.073951 1.181276 -1.139377
v 3.244440 0.783467 -1.139378
v 3.519119 0.549832 -0.979346
v 3.459133 0.761366 -1.063679
v 2.145727 1.408597 -1.181605
v 1.912719 1.441397 -1.062543
v 1.439144 2.560313 -1.062543
v 1.069744 3.161413 -1.181605
v -2.929274 3.194148 -1.181604
v -3.129644 0.924488 -1.041524
v -3.419629 0.794858 -1.181604
v -3.419629 0.535965 -1.181604
v -3.137374 0.464537 -1.181604
v -2.103066 0.308645 -1.181604
v -1.002685 0.410165 -1.183389
v -1.892500 0.998983 -1.181604
v -1.231839 0.998267 -1.181604
v 1.772623 0.423804 -1.183389
v 2.793160 0.361055 -1.181605
v 3.002295 0.347416 -1.181605
v 3.034118 0.488354 -1.181605
v 1.870240 0.897531 -1.181605
v 2.574933 0.942994 -1.181605
v 0.420339 0.416985 -1.183389
v -0.929764 3.177781 -1.181605
v 0.299129 3.169597 -1.181605
v -1.929519 3.185964 -1.181604
v 2.013123 1.351767 -1.181605
v 1.444823 2.710562 -1.181605
v -0.932919 1.486494 -1.183389
v 1.619447 1.486494 -1.181605
v -3.056842 1.464674 -1.041524
v -1.921095 2.714445 -1.181604
v 1.374700 1.486494 -1.183389
v -1.897916 1.486494 -1.181604
v 0.323707 1.486494 -1.183389
v -2.890374 2.807861 -1.041525
v -0.930597 2.713302 -1.181604
v 1.148500 2.710903 -1.181605
v 0.305548 2.711875 -1.181605
v -3.138656 1.486494 -1.181604
v -3.230196 0.807487 -1.181604
v -2.955822 2.968812 -1.181604
v 0.323707 1.486494 -1.106029
v -0.932919 1.486494 -1.106029
v 1.374700 1.486494 -1.106029
v -0.930597 2.713302 -1.106029
v 1.148500 2.710903 -1.106029
v 0.305548 2.711875 -1.106029
vn -0.0000 -0.0000 1.0000
vn -0.0000 -0.0000 -1.0000
vn -0.0000 0.6602 0.7511
vn -0.0000 1.0000 -0.0000
vn -1.0000 -0.0000 -0.0000
vn 1.0000 -0.0000 -0.0000
vn -0.0000 -1.0000 -0.0000
vn -0.0000 -0.6786 0.7345
vn -0.0000 0.6602 -0.7511
vn -0.0000 -0.6786 -0.7345
vn 0.9754 -0.2203 -0.0000
vn 0.0082 1.0000 -0.0000
vn 0.1258 -0.9921 -0.0000
vn 0.9794 -0.2018 -0.0000
vn 0.0644 -0.9979 -0.0000
vn -0.0665 0.9978 -0.0000
vn 0.0048 -0.9993 0.0366
vn -0.2453 -0.9694 -0.0000
vn 0.0067 1.0000 -0.0000
vn -0.1490 -0.9888 -0.0000
vn 0.2379 0.9713 -0.0000
vn 0.0106 0.9999 -0.0000
vn -0.9318 -0.3631 -0.0000
vn 0.9191 0.3939 -0.0000
vn 0.9565 -0.2917 -0.0000
vn 0.1024 0.9947 -0.0000
vn -0.0011 -1.0000 -0.0000
vn 0.9621 0.2728 -0.0000
vn 0.0050 -0.9993 0.0366
vn -0.3939 0.9191 -0.0000
vn -0.9363 -0.3511 -0.0000
vn 0.9209 0.3898 -0.0000
vn -0.0651 -0.9979 -0.0000
vn 0.7687 0.6396 -0.0000
vn -0.9931 0.1170 -0.0000
vn -0.9925 0.1223 -0.0000
vn 0.0073 0.0010 1.0000
vn 0.0586 0.0540 0.9968
vn 0.2932 -0.2811 0.9138
vn 0.0825 0.0833 0.9931
vn 0.8292 0.3510 -0.4351
vn -0.9910 0.1336 -0.0000
vn 0.6659 0.7460 -0.0000
vn 0.9993 -0.0378 -0.0000
vn -0.0018 0.0015 1.0000
vn 0.0073 0.0031 1.0000
vn -0.0067 0.0004 1.0000
vn -0.0012 -1.0000 -0.0000
vn -0.9834 -0.1817 -0.0000
vn -0.8499 0.1146 -0.5143
vn -0.7584 0.6518 -0.0000
vn -0.8514 0.1055 -0.5137
vn -0.9262 -0.3771 0.0009
vn 1.0000 -0.0019 -0.0000
vn 0.9633 -0.2672 0.0275
vn 0.0048 -0.9993 -0.0366
vn 0.0050 -0.9993 -0.0366
vn 0.7687 0.6395 -0.0000
vn -0.0000 0.0015 -1.0000
vn 0.0586 0.0540 -0.9968
vn 0.3968 -0.1533 -0.9050
vn 0.0700 0.0300 -0.9971
vn 0.8148 0.3408 0.4689
vn -0.0018 0.0015 -1.0000
vn 0.0065 0.0024 -1.0000
vn -0.0067 0.0004 -1.0000
vn -0.8499 0.1146 0.5144
vn -0.8514 0.1055 0.5137
vn -0.9261 -0.3773 -0.0008
vn 0.9633 -0.2672 -0.0275
vn -0.9593 -0.2784 0.0474
vn -0.9926 0.1216 0.0009
vn -0.0018 -0.0025 1.0000
vn -0.9924 0.1230 0.0009
vn -0.0000 0.0015 1.0000
vn 0.3968 -0.1533 0.9050
vn 0.0700 0.0300 0.9971
vn 0.8148 0.3408 -0.4689
vn 0.0065 0.0024 1.0000
vn -0.8499 0.1146 -0.5144
vn -0.8494 0.1048 -0.5172
vn -0.9261 -0.3773 0.0008
vn -0.9593 -0.2784 -0.0474
vn 0.7688 0.6395 -0.0000
vn -0.9926 0.1216 -0.0009
vn -0.0018 -0.0025 -1.0000
vn -0.9924 0.1230 -0.0009
vn 0.0073 0.0010 -1.0000
vn 0.2932 -0.2811 -0.9138
vn 0.0825 0.0833 -0.9931
vn 0.8292 0.3510 0.4351
vn 0.0073 0.0031 -1.0000
vn -0.8499 0.1145 0.5143
vn -0.8494 0.1048 0.5172
vn -0.9262 -0.3771 -0.0009
vt 0.933656 0.191224
vt 0.826467 0.153534
vt 0.977782 0.160475
vt 0.881135 0.153534
vt 0.916216 0.195260
vt 0.977782 0.182342
vt 0.924869 0.157178
vt 0.933656 0.173001
vt 0.826467 0.164467
vt 0.866557 0.182690
vt 0.881135 0.164467
vt 0.924869 0.168112
vt 0.826467 0.182690
vt 0.815533 0.153534
vt 0.985071 0.167764
vt 0.804600 0.153534
vt 0.985071 0.182342
vt 0.819178 0.182690
vt 0.804600 0.164467
vt 0.815533 0.164467
vt 0.819178 0.171756
vt 0.977782 0.189631
vt 0.932158 0.157178
vt 0.932158 0.164467
vt 0.826467 0.193623
vt 0.985071 0.189631
vt 0.793666 0.153534
vt 0.819178 0.193623
vt 0.793666 0.164467
vt 0.870201 0.153534
vt 0.916216 0.180682
vt 0.859268 0.153534
vt 0.923505 0.173393
vt 0.966457 0.191224
vt 0.859268 0.164467
vt 0.870201 0.164467
vt 0.866557 0.171756
vt 0.888424 0.153534
vt 0.923505 0.195260
vt 0.966457 0.173001
vt 0.888424 0.164467
vt 0.859268 0.182690
vt 0.977782 0.160475
vt 0.933656 0.173001
vt 0.826467 0.153534
vt 0.881135 0.153534
vt 0.916216 0.195260
vt 0.977782 0.182342
vt 0.924869 0.157178
vt 0.933656 0.191224
vt 0.826467 0.164467
vt 0.881135 0.164467
vt 0.866557 0.182690
vt 0.924869 0.168112
vt 0.826467 0.182690
vt 0.815533 0.153534
vt 0.985071 0.167764
vt 0.804600 0.153534
vt 0.985071 0.182342
vt 0.819178 0.182690
vt 0.804600 0.164467
vt 0.815533 0.164467
vt 0.819178 0.171756
vt 0.977782 0.189631
vt 0.932158 0.157178
vt 0.932158 0.164467
vt 0.826467 0.193623
vt 0.985071 0.189631
vt 0.793666 0.153534
vt 0.819178 0.193623
vt 0.793666 0.164467
vt 0.870201 0.153534
vt 0.916216 0.180682
vt 0.859268 0.153534
vt 0.923505 0.173393
vt 0.966457 0.173001
vt 0.859268 0.164467
vt 0.870201 0.164467
vt 0.866557 0.171756
vt 0.888424 0.153534
vt 0.923505 0.195260
vt 0.966457 0.191224
vt 0.888424 0.164467
vt 0.859268 0.182690
vt 0.640409 0.382326
vt 0.679005 0.437956
vt 0.596646 0.384871
vt 0.299680 0.092030
vt 0.708132 0.425923
vt 0.321576 0.056684
vt 0.321576 0.074907
vt 0.724233 0.385970
vt 0.660782 0.521780
vt 0.484774 0.790767
vt 0.983251 0.127795
vt 0.379083 0.790767
vt 0.983251 0.025748
vt 0.994185 0.940147
vt 0.507712 0.616537
vt 0.507712 0.966411
vt 0.994185 0.586629
vt 0.993115 0.204940
vt 0.979607 0.389824
vt 0.050328 0.039660
vt 0.039394 0.061527
vt 0.010238 0.050593
vt 0.748250 0.980989
vt 0.035750 0.087039
vt 0.005329 0.117135
vt 0.005329 0.208248
vt 0.755525 0.889876
vt 0.000279 0.383185
vt 0.746844 0.795119
vt 0.005329 0.270205
vt 0.700872 0.875298
vt 0.006532 0.332125
vt 0.698430 0.820593
vt 0.005329 0.631013
vt 0.748250 0.550936
vt 0.000920 0.787727
vt 0.747486 0.463467
vt 0.000920 0.805950
vt 0.747486 0.445245
vt 0.005329 0.820528
vt 0.303354 0.012950
vt 0.277842 0.078552
vt 0.740961 0.441600
vt 0.008937 0.670902
vt 0.708124 0.543446
vt 0.005329 0.733059
vt 0.700872 0.481690
vt 0.003814 0.510743
vt 0.746735 0.671205
vt 0.994185 0.761566
vt 0.507712 0.791474
vt 0.994185 0.870901
vt 0.507712 0.682139
vt 0.640409 0.283924
vt 0.603964 0.283924
vt 0.405400 0.096774
vt 0.405400 0.056684
vt 0.405400 0.074907
vt 0.724233 0.283924
vt 0.735167 0.283924
vt 0.892138 0.142373
vt 0.892138 0.991170
vt 0.892138 0.007525
vt 0.892138 0.940147
vt 0.892138 0.590273
vt 0.141441 0.021437
vt 0.892138 0.375246
vt 0.141441 0.039660
vt 0.141441 0.065172
vt 0.141441 0.090683
vt 0.111020 0.117135
vt 0.111020 0.208248
vt 0.111020 0.383185
vt 0.111020 0.270205
vt 0.111020 0.328517
vt 0.111020 0.623724
vt 0.111020 0.787727
vt 0.111020 0.805950
vt 0.111020 0.820528
vt 0.409045 0.012950
vt 0.111020 0.671103
vt 0.111020 0.733059
vt 0.111020 0.507099
vt 0.892138 0.765210
vt 0.892138 0.870901
vt 0.994185 0.674097
vt 0.507712 0.878943
vt 0.892138 0.677742
vt 0.735167 0.385970
vt 0.994185 0.138728
vt 0.664426 0.532713
vt 0.994185 0.991170
vt 0.547802 0.583736
vt 0.994185 0.011170
vt 0.892138 0.022103
vt 0.379083 0.881880
vt 0.484774 0.881880
vt 0.892138 0.131439
vt 0.657137 0.791474
vt 0.765831 0.016410
vt 0.653493 0.565514
vt 0.983251 0.437203
vt 0.993115 0.252319
vt 0.547802 0.878943
vt 0.560624 0.048930
vt 0.656675 0.587381
vt 0.657137 0.875298
vt 0.656675 0.678494
vt 0.646789 0.008012
vt 0.993115 0.372588
vt 0.979607 0.553828
vt 0.892138 0.568406
vt 0.547802 0.791474
vt 0.769901 0.107432
vt 0.547802 0.609248
vt 0.588012 0.138621
vt 0.672212 0.148428
vt 0.547802 0.682139
vt 0.657137 0.984634
vt 0.997829 0.437203
vt 0.039394 0.025082
vt 0.715450 0.991923
vt 0.994185 0.378891
vt 0.525935 0.966411
vt 0.994185 0.568406
vt 0.892138 0.389824
vt 0.902002 0.204940
vt 0.902002 0.252319
vt 0.902002 0.372588
vt 0.892138 0.553828
vt 0.230311 0.215780
vt 0.642509 0.016087
vt 0.230311 0.106444
vt 0.760107 0.022211
vt 0.230311 0.310538
vt 0.565518 0.050028
vt 0.339646 0.106444
vt 0.760650 0.102884
vt 0.336002 0.288670
vt 0.592560 0.129370
vt 0.336002 0.215780
vt 0.668685 0.138079
vt 0.423132 0.698088
vt 0.640409 0.181877
vt 0.609576 0.180875
vt 0.513059 0.092128
vt 0.392298 0.711664
vt 0.492869 0.056684
vt 0.492869 0.078552
vt 0.441354 0.614264
vt 0.724233 0.178233
vt 0.484774 0.976637
vt 0.797381 0.127795
vt 0.379083 0.976637
vt 0.801025 0.022103
vt 0.786447 0.940147
vt 0.594424 0.519506
vt 0.594424 0.169632
vt 0.790092 0.586629
vt 0.810889 0.204940
vt 0.801025 0.389824
vt 0.236198 0.043304
vt 0.247132 0.065172
vt 0.213067 0.117135
vt 0.276288 0.054238
vt 0.353886 0.155054
vt 0.247132 0.090683
vt 0.344988 0.239415
vt 0.213067 0.208248
vt 0.213067 0.383185
vt 0.350241 0.340925
vt 0.214330 0.270205
vt 0.402527 0.260745
vt 0.211299 0.328770
vt 0.403141 0.319310
vt 0.353886 0.585108
vt 0.213067 0.631013
vt 0.215673 0.787727
vt 0.352847 0.672576
vt 0.215673 0.805950
vt 0.352847 0.690799
vt 0.511091 0.016595
vt 0.536603 0.082196
vt 0.213067 0.820528
vt 0.361175 0.694443
vt 0.209058 0.671503
vt 0.393611 0.592798
vt 0.213067 0.733059
vt 0.401265 0.654354
vt 0.213067 0.510743
vt 0.353886 0.464838
vt 0.786447 0.761566
vt 0.594424 0.344569
vt 0.786447 0.870901
vt 0.594424 0.453905
vt 0.786447 0.674097
vt 0.594424 0.257101
vt 0.735167 0.178233
vt 0.786447 0.138728
vt 0.437710 0.603330
vt 0.786447 0.991170
vt 0.554334 0.552307
vt 0.786447 0.011170
vt 0.444999 0.344569
vt 0.765831 0.016410
vt 0.448643 0.570530
vt 0.810889 0.252319
vt 0.801025 0.437203
vt 0.554334 0.257101
vt 0.443871 0.548663
vt 0.552670 0.048930
vt 0.444999 0.260745
vt 0.443871 0.457549
vt 0.638835 0.008012
vt 0.810889 0.372588
vt 0.801025 0.553828
vt 0.554334 0.344569
vt 0.766451 0.108608
vt 0.554334 0.526795
vt 0.588012 0.138621
vt 0.554334 0.453905
vt 0.672212 0.148428
vt 0.444999 0.151410
vt 0.786447 0.437203
vt 0.386686 0.144121
vt 0.247132 0.028726
vt 0.790092 0.378891
vt 0.576202 0.169632
vt 0.790092 0.568406
vt 0.333728 0.390596
vt 0.642509 0.016087
vt 0.333728 0.499931
vt 0.760107 0.022211
vt 0.333728 0.295838
vt 0.565518 0.050028
vt 0.224392 0.499931
vt 0.760650 0.102884
vt 0.228037 0.317705
vt 0.592560 0.129370
vt 0.228037 0.390596
vt 0.668685 0.138079
s 0
usemtl Material.001
f 4/9/1 16/32/1 17/35/1
f 3/7/2 20/41/2 19/38/2
f 4/9/3 7/14/3 1/2/3
f 8/16/4 10/20/4 9/19/4
f 8/17/5 11/22/5 3/6/5
f 6/13/6 10/21/6 4/9/6
f 3/6/5 7/15/5 8/17/5
f 3/7/7 12/24/7 6/12/7
f 6/13/6 14/28/6 9/18/6
f 9/19/4 13/27/4 8/16/4
f 18/36/8 16/32/8 15/30/8
f 5/11/7 15/30/7 2/4/7
f 19/38/2 5/11/2 2/4/2
f 20/42/6 18/37/6 5/10/6
f 17/35/6 6/13/6 4/9/6
f 15/31/5 19/39/5 2/5/5
f 3/8/5 16/34/5 1/1/5
f 36/74/2 24/51/2 37/77/2
f 40/83/1 23/49/1 39/80/1
f 27/56/9 24/51/9 21/45/9
f 30/62/4 28/58/4 29/61/4
f 31/64/5 28/59/5 23/48/5
f 30/63/6 26/55/6 24/51/6
f 23/48/5 27/57/5 21/43/5
f 32/66/7 23/49/7 26/54/7
f 34/70/6 26/55/6 29/60/6
f 33/69/4 29/61/4 28/58/4
f 36/74/10 38/78/10 35/72/10
f 35/72/7 25/52/7 22/46/7
f 25/52/1 39/80/1 22/46/1
f 40/84/6 38/79/6 37/77/6
f 26/55/6 37/77/6 24/51/6
f 39/81/5 35/73/5 22/47/5
f 36/76/5 23/50/5 21/44/5
f 86/162/11 61/124/11 60/122/11
f 94/172/12 49/101/12 93/170/12
f 43/90/13 87/164/13 69/141/13
f 112/205/1 52/105/1 53/106/1
f 58/118/14 88/165/14 62/128/14
f 112/206/1 54/111/1 56/115/1
f 88/165/15 63/130/15 62/128/15
f 76/150/16 51/104/16 112/205/16
f 55/112/17 90/167/17 64/132/17
f 51/104/5 78/153/5 52/105/5
f 78/153/18 53/108/18 52/105/18
f 92/169/19 65/134/19 66/136/19
f 53/109/20 80/156/20 54/110/20
f 41/85/21 71/143/21 45/92/21
f 74/148/22 66/136/22 48/98/22
f 83/159/23 55/112/23 57/116/23
f 42/87/24 67/138/24 41/85/24
f 80/156/25 56/114/25 54/110/25
f 44/91/26 68/140/26 42/88/26
f 82/158/27 57/116/27 56/114/27
f 43/90/28 70/142/28 44/91/28
f 64/132/29 84/160/29 58/118/29
f 71/143/30 95/173/30 45/92/30
f 63/130/31 85/161/31 59/120/31
f 98/181/32 47/96/32 46/94/32
f 59/120/33 86/162/33 60/122/33
f 73/146/34 48/98/34 96/176/34
f 75/149/35 113/209/35 49/101/35
f 91/168/12 93/170/12 65/134/12
f 113/208/1 93/171/1 49/100/1
f 57/117/1 104/191/1 56/115/1
f 101/187/36 116/213/36 115/212/36
f 55/113/1 105/192/1 99/183/1
f 64/133/1 103/190/1 105/192/1
f 96/177/37 103/190/37 100/185/37
f 122/225/1 118/217/1 117/215/1
f 95/175/1 63/131/1 45/93/1
f 45/93/38 63/131/38 41/86/38
f 42/88/39 43/90/39 44/91/39
f 59/121/1 61/127/1 63/131/1
f 42/89/40 63/131/40 61/127/40
f 47/97/41 95/174/41 46/95/41
f 50/102/42 115/212/42 114/211/42
f 46/95/43 72/145/43 98/182/43
f 73/147/44 47/97/44 97/179/44
f 108/197/45 104/191/45 99/183/45
f 103/190/46 62/129/46 100/185/46
f 57/117/47 55/113/47 99/183/47
f 121/223/1 117/215/1 119/219/1
f 122/226/48 109/200/48 110/201/48
f 111/203/1 56/115/1 104/191/1
f 109/200/49 119/220/49 103/189/49
f 48/99/1 110/202/1 109/199/1
f 109/199/1 96/177/1 48/99/1
f 65/135/1 102/188/1 108/197/1
f 66/137/1 108/197/1 110/202/1
f 111/203/1 102/188/1 113/208/1
f 50/103/50 111/204/50 101/186/50
f 76/151/51 50/103/51 114/210/51
f 111/204/52 106/195/52 101/186/52
f 106/195/53 107/196/53 116/214/53
f 100/185/1 95/175/1 96/177/1
f 118/218/54 108/198/54 99/184/54
f 119/220/4 105/193/4 103/189/4
f 108/198/48 122/226/48 110/201/48
f 117/216/4 99/184/4 105/193/4
f 143/268/11 86/162/11 142/264/11
f 131/243/12 94/172/12 149/280/12
f 125/232/13 87/164/13 143/266/13
f 164/310/2 134/247/2 133/246/2
f 140/261/55 88/165/55 84/160/55
f 136/252/2 164/309/2 138/257/2
f 144/270/15 89/166/15 88/165/15
f 164/310/16 77/152/16 76/150/16
f 137/254/56 90/167/56 81/157/56
f 134/247/5 77/152/5 133/246/5
f 135/251/18 78/153/18 134/247/18
f 148/278/19 91/168/19 92/169/19
f 136/253/20 79/155/20 135/248/20
f 123/228/21 71/143/21 67/138/21
f 148/278/22 74/148/22 130/240/22
f 137/254/23 83/159/23 139/258/23
f 123/228/24 68/139/24 124/229/24
f 138/256/25 80/156/25 136/253/25
f 126/233/26 68/140/26 70/142/26
f 139/258/27 82/158/27 138/256/27
f 125/232/28 70/142/28 69/141/28
f 146/274/57 84/160/57 90/167/57
f 127/235/30 72/144/30 71/143/30
f 141/262/31 89/166/31 145/272/31
f 128/236/32 97/180/32 98/181/32
f 142/264/33 85/161/33 141/262/33
f 130/240/58 73/146/58 151/285/58
f 165/313/35 75/149/35 131/243/35
f 149/280/12 91/168/12 147/276/12
f 149/281/2 165/312/2 131/242/2
f 157/296/2 139/259/2 138/257/2
f 116/213/36 154/291/36 115/212/36
f 137/255/2 158/297/2 146/275/2
f 146/275/2 156/294/2 140/260/2
f 151/286/59 156/294/59 161/303/59
f 167/316/2 171/324/2 166/314/2
f 145/273/2 150/284/2 127/234/2
f 127/234/60 123/227/60 145/273/60
f 124/230/61 125/232/61 143/267/61
f 143/269/2 141/263/2 145/273/2
f 124/231/62 145/273/62 123/227/62
f 129/239/63 150/283/63 151/287/63
f 114/211/42 154/291/42 132/244/42
f 128/237/43 72/145/43 150/283/43
f 129/239/44 73/147/44 97/179/44
f 157/296/64 160/301/64 152/288/64
f 156/294/65 144/271/65 140/260/65
f 139/259/66 152/288/66 137/255/66
f 166/314/2 170/322/2 168/318/2
f 162/306/48 170/323/48 171/325/48
f 163/307/2 138/257/2 164/309/2
f 161/304/49 168/319/49 170/323/49
f 162/305/2 130/241/2 161/303/2
f 161/303/2 130/241/2 151/286/2
f 155/293/2 147/277/2 160/301/2
f 160/301/2 148/279/2 162/305/2
f 155/293/2 163/307/2 165/312/2
f 132/245/67 163/308/67 164/311/67
f 132/245/51 76/151/51 114/210/51
f 159/300/68 163/308/68 154/292/68
f 159/300/69 107/196/69 165/313/69
f 150/284/2 153/290/2 151/286/2
f 160/302/54 167/317/54 152/289/54
f 158/298/4 168/319/4 156/295/4
f 162/306/48 169/321/48 160/302/48
f 152/289/4 166/315/4 158/298/4
f 4/9/1 1/2/1 16/32/1
f 3/7/2 6/12/2 20/41/2
f 4/9/3 10/20/3 7/14/3
f 8/16/4 7/14/4 10/20/4
f 8/17/5 13/26/5 11/22/5
f 6/13/6 9/18/6 10/21/6
f 3/6/5 1/3/5 7/15/5
f 3/7/7 11/23/7 12/24/7
f 6/13/6 12/25/6 14/28/6
f 9/19/4 14/29/4 13/27/4
f 18/36/8 17/35/8 16/32/8
f 5/11/7 18/36/7 15/30/7
f 19/38/2 20/41/2 5/11/2
f 20/42/6 17/35/6 18/37/6
f 17/35/6 20/42/6 6/13/6
f 15/31/5 16/33/5 19/39/5
f 3/8/5 19/40/5 16/34/5
f 36/74/2 21/45/2 24/51/2
f 40/83/1 26/54/1 23/49/1
f 27/56/9 30/62/9 24/51/9
f 30/62/4 27/56/4 28/58/4
f 31/64/5 33/68/5 28/59/5
f 30/63/6 29/60/6 26/55/6
f 23/48/5 28/59/5 27/57/5
f 32/66/7 31/65/7 23/49/7
f 34/70/6 32/67/6 26/55/6
f 33/69/4 34/71/4 29/61/4
f 36/74/10 37/77/10 38/78/10
f 35/72/7 38/78/7 25/52/7
f 25/52/1 40/83/1 39/80/1
f 40/84/6 25/53/6 38/79/6
f 26/55/6 40/84/6 37/77/6
f 39/81/5 36/75/5 35/73/5
f 36/76/5 39/82/5 23/50/5
f 86/162/11 87/163/11 61/124/11
f 94/172/12 75/149/12 49/101/12
f 43/90/13 61/125/13 87/164/13
f 112/205/1 51/104/1 52/105/1
f 58/118/70 84/160/70 88/165/70
f 112/206/1 53/107/1 54/111/1
f 88/165/15 89/166/15 63/130/15
f 76/150/16 77/152/16 51/104/16
f 55/112/17 81/157/17 90/167/17
f 51/104/5 77/152/5 78/153/5
f 78/153/18 79/154/18 53/108/18
f 92/169/19 91/168/19 65/134/19
f 53/109/20 79/155/20 80/156/20
f 41/85/21 67/138/21 71/143/21
f 74/148/22 92/169/22 66/136/22
f 83/159/71 81/157/71 55/112/71
f 42/87/24 68/139/24 67/138/24
f 80/156/25 82/158/25 56/114/25
f 44/91/26 70/142/26 68/140/26
f 82/158/27 83/159/27 57/116/27
f 43/90/28 69/141/28 70/142/28
f 64/132/29 90/167/29 84/160/29
f 71/143/30 72/144/30 95/173/30
f 63/130/31 89/166/31 85/161/31
f 98/181/32 97/180/32 47/96/32
f 59/120/33 85/161/33 86/162/33
f 73/146/58 74/148/58 48/98/58
f 75/149/72 107/196/72 113/209/72
f 91/168/12 94/172/12 93/170/12
f 113/208/1 102/188/1 93/171/1
f 57/117/73 99/183/73 104/191/73
f 101/187/74 106/194/74 116/213/74
f 55/113/1 64/133/1 105/192/1
f 64/133/1 58/119/1 103/190/1
f 96/177/75 109/199/75 103/190/75
f 122/225/1 120/221/1 118/217/1
f 95/175/1 62/129/1 63/131/1
f 42/88/76 61/126/76 43/90/76
f 59/121/1 60/123/1 61/127/1
f 42/89/77 41/86/77 63/131/77
f 47/97/78 96/178/78 95/174/78
f 50/102/42 101/187/42 115/212/42
f 46/95/43 95/174/43 72/145/43
f 73/147/44 96/178/44 47/97/44
f 108/197/1 102/188/1 104/191/1
f 103/190/79 58/119/79 62/129/79
f 121/223/1 122/225/1 117/215/1
f 122/226/48 121/224/48 109/200/48
f 111/203/1 112/206/1 56/115/1
f 109/200/49 121/224/49 119/220/49
f 48/99/1 66/137/1 110/202/1
f 65/135/1 93/171/1 102/188/1
f 66/137/1 65/135/1 108/197/1
f 111/203/1 104/191/1 102/188/1
f 50/103/80 112/207/80 111/204/80
f 76/151/51 112/207/51 50/103/51
f 111/204/81 113/209/81 106/195/81
f 106/195/82 113/209/82 107/196/82
f 100/185/1 62/129/1 95/175/1
f 118/218/54 120/222/54 108/198/54
f 119/220/4 117/216/4 105/193/4
f 108/198/48 120/222/48 122/226/48
f 117/216/4 118/218/4 99/184/4
f 143/268/11 87/163/11 86/162/11
f 131/243/12 75/149/12 94/172/12
f 125/232/13 69/141/13 87/164/13
f 164/310/2 135/249/2 134/247/2
f 140/261/14 144/270/14 88/165/14
f 136/252/2 135/250/2 164/309/2
f 144/270/15 145/272/15 89/166/15
f 164/310/16 133/246/16 77/152/16
f 137/254/56 146/274/56 90/167/56
f 134/247/5 78/153/5 77/152/5
f 135/251/18 79/154/18 78/153/18
f 148/278/19 147/276/19 91/168/19
f 136/253/20 80/156/20 79/155/20
f 123/228/21 127/235/21 71/143/21
f 148/278/22 92/169/22 74/148/22
f 137/254/83 81/157/83 83/159/83
f 123/228/24 67/138/24 68/139/24
f 138/256/25 82/158/25 80/156/25
f 126/233/26 124/230/26 68/140/26
f 139/258/27 83/159/27 82/158/27
f 125/232/28 126/233/28 70/142/28
f 146/274/57 140/261/57 84/160/57
f 127/235/30 150/282/30 72/144/30
f 141/262/31 85/161/31 89/166/31
f 128/236/32 129/238/32 97/180/32
f 142/264/33 86/162/33 85/161/33
f 130/240/84 74/148/84 73/146/84
f 165/313/85 107/196/85 75/149/85
f 149/280/12 94/172/12 91/168/12
f 149/281/2 155/293/2 165/312/2
f 157/296/86 152/288/86 139/259/86
f 116/213/87 159/299/87 154/291/87
f 137/255/2 152/288/2 158/297/2
f 146/275/2 158/297/2 156/294/2
f 151/286/88 153/290/88 156/294/88
f 167/316/2 169/320/2 171/324/2
f 145/273/2 144/271/2 150/284/2
f 124/230/89 126/233/89 125/232/89
f 143/269/2 142/265/2 141/263/2
f 124/231/90 143/269/90 145/273/90
f 129/239/91 128/237/91 150/283/91
f 114/211/42 115/212/42 154/291/42
f 128/237/43 98/182/43 72/145/43
f 129/239/44 151/287/44 73/147/44
f 157/296/2 155/293/2 160/301/2
f 156/294/92 153/290/92 144/271/92
f 166/314/2 171/324/2 170/322/2
f 162/306/48 161/304/48 170/323/48
f 163/307/2 157/296/2 138/257/2
f 161/304/49 156/295/49 168/319/49
f 162/305/2 148/279/2 130/241/2
f 155/293/2 149/281/2 147/277/2
f 160/301/2 147/277/2 148/279/2
f 155/293/2 157/296/2 163/307/2
f 132/245/93 154/292/93 163/308/93
f 132/245/51 164/311/51 76/151/51
f 159/300/94 165/313/94 163/308/94
f 159/300/95 116/214/95 107/196/95
f 150/284/2 144/271/2 153/290/2
f 160/302/54 169/321/54 167/317/54
f 158/298/4 166/315/4 168/319/4
f 162/306/48 171/325/48 169/321/48
f 152/289/4 167/317/4 166/315/4
