# Blender 3.4.1
# www.blender.org
mtllib PizzaTruck_Weapon.mtl
o PizzaTruck_Weapon
v 0.000002 0.000002 -0.884863
v -0.625690 0.000002 -0.625693
v -0.884861 0.000002 0.000000
v -0.625690 0.000002 0.625693
v 0.000002 0.000002 0.884864
v 0.625695 0.000002 0.625693
v 0.884866 0.000002 0.000000
v 0.625695 0.000002 -0.625693
v -0.541811 0.117235 -0.541813
v 0.000002 0.117235 -0.766239
v -0.766237 0.117235 0.000000
v -0.541811 0.117235 0.541814
v 0.000002 0.117235 0.766240
v 0.541816 0.117235 0.541814
v 0.766242 0.117235 0.000000
v 0.541816 0.117235 -0.541813
v -0.106807 0.102331 0.107500
v -0.106807 0.508853 0.107500
v -0.106807 0.102331 -0.107500
v -0.106807 0.508853 -0.107500
v 0.108193 0.102331 0.107500
v 0.108193 0.508853 0.107500
v 0.108193 0.102331 -0.107500
v 0.108193 0.508853 -0.107500
v -0.544426 0.500635 0.026027
v 1.075417 1.366303 -0.023142
v -0.610756 0.626335 -0.022670
v 1.031207 1.450083 -0.055599
v -0.624240 0.651886 -0.170105
v 1.022221 1.467113 -0.153865
v -0.571392 0.551738 -0.268842
v 1.057444 1.400363 -0.219673
v -0.505062 0.426037 -0.220145
v 1.101653 1.316584 -0.187216
v -0.491579 0.400486 -0.072710
v 1.110640 1.299553 -0.088951
v 0.184471 0.505678 0.245976
v 0.184471 0.505678 -0.245577
v -0.044936 0.940416 -0.245577
v -0.044936 0.940416 0.245976
v 0.120554 0.471949 0.245976
v 0.120554 0.471949 -0.245577
v -0.108853 0.906688 -0.245577
v -0.108853 0.906688 0.245976
v -0.460478 0.341550 0.026027
v 1.168358 1.190175 -0.023142
v -0.394148 0.215850 -0.022670
v 1.212567 1.106396 -0.055599
v -0.380665 0.190299 -0.170105
v 1.221554 1.089366 -0.153865
v -0.433512 0.290447 -0.268842
v 1.186331 1.156115 -0.219673
v -0.499843 0.416147 -0.220145
v 1.142121 1.239895 -0.187216
v -0.513326 0.441699 -0.072710
v 1.133135 1.256925 -0.088951
v -0.544426 0.500635 -0.025628
v 1.075417 1.366303 0.023540
v -0.610756 0.626335 0.023069
v 1.031207 1.450083 0.055998
v -0.624240 0.651886 0.170504
v 1.022221 1.467113 0.154263
v -0.571392 0.551738 0.269241
v 1.057444 1.400363 0.220072
v -0.505062 0.426037 0.220544
v 1.101653 1.316584 0.187615
v -0.491579 0.400486 0.073109
v 1.110640 1.299553 0.089349
v -0.460478 0.341550 -0.025628
v 1.168358 1.190175 0.023540
v -0.394148 0.215850 0.023069
v 1.212567 1.106396 0.055998
v -0.380665 0.190299 0.170504
v 1.221554 1.089366 0.154263
v -0.433512 0.290447 0.269241
v 1.186331 1.156115 0.220072
v -0.499843 0.416147 0.220544
v 1.142121 1.239895 0.187615
v -0.513326 0.441699 0.073109
v 1.133135 1.256925 0.089349
v 0.186966 0.500950 -0.348925
v 0.232703 0.414276 -0.250923
v 0.200362 0.475564 -0.279627
v -0.093167 1.031818 -0.250923
v -0.047431 0.945144 -0.348925
v -0.060826 0.970530 -0.279627
v 0.232703 0.414276 0.251322
v 0.186966 0.500950 0.349323
v 0.200362 0.475564 0.280026
v -0.047431 0.945144 0.349323
v -0.093168 1.031818 0.251322
v -0.060826 0.970530 0.280026
v 0.123049 0.467221 0.349323
v 0.168786 0.380547 0.251322
v 0.136445 0.441835 0.280026
v 0.168786 0.380547 -0.250923
v 0.123049 0.467221 -0.348925
v 0.136445 0.441835 -0.279627
v -0.111348 0.911416 -0.348925
v -0.157085 0.998090 -0.250923
v -0.124744 0.936802 -0.279627
v -0.157085 0.998090 0.251322
v -0.111348 0.911416 0.349323
v -0.124744 0.936802 0.280026
v 1.013583 1.483481 -0.022670
v 1.079914 1.357782 0.026027
v 1.000100 1.509033 -0.170105
v 1.052948 1.408884 -0.268842
v 1.119278 1.283184 -0.220145
v 1.132761 1.257633 -0.072710
v 1.230192 1.072997 -0.022670
v 1.163861 1.198697 0.026027
v 1.243675 1.047446 -0.170105
v 1.190827 1.147594 -0.268842
v 1.124497 1.273294 -0.220145
v 1.111014 1.298845 -0.072710
v 1.013583 1.483481 0.023069
v 1.079914 1.357782 -0.025628
v 1.000100 1.509033 0.170504
v 1.052947 1.408884 0.269241
v 1.119278 1.283184 0.220544
v 1.132761 1.257633 0.073109
v 1.230192 1.072997 0.023069
v 1.163861 1.198697 -0.025628
v 1.243675 1.047446 0.170504
v 1.190828 1.147594 0.269241
v 1.124497 1.273294 0.220544
v 1.111014 1.298845 0.073109
v 0.640223 1.243764 -0.055599
v 0.684433 1.159985 -0.023142
v 0.631236 1.260794 -0.153865
v 0.666460 1.194044 -0.219673
v 0.710669 1.110265 -0.187216
v 0.719656 1.093235 -0.088951
v 0.821583 0.900077 -0.055599
v 0.777373 0.983857 -0.023142
v 0.830570 0.883048 -0.153865
v 0.795347 0.949797 -0.219673
v 0.751137 1.033576 -0.187216
v 0.742150 1.050607 -0.088951
v 0.640223 1.243764 0.055998
v 0.684433 1.159985 0.023540
v 0.631236 1.260794 0.154263
v 0.666460 1.194044 0.220072
v 0.710669 1.110265 0.187615
v 0.719656 1.093235 0.089349
v 0.821583 0.900077 0.055998
v 0.777373 0.983857 0.023540
v 0.830569 0.883048 0.154263
v 0.795347 0.949796 0.220072
v 0.751137 1.033576 0.187615
v 0.742150 1.050607 0.089349
vn -0.0000 1.0000 -0.0000
vn -0.2796 0.6829 -0.6749
vn -0.6749 0.6829 -0.2796
vn -0.6749 0.6829 0.2796
vn -0.2796 0.6829 0.6749
vn 0.2796 0.6829 0.6749
vn 0.6749 0.6829 0.2796
vn 0.6749 0.6829 -0.2796
vn 0.2796 0.6829 -0.6749
vn -1.0000 -0.0000 -0.0000
vn -0.0000 -0.0000 -1.0000
vn 1.0000 -0.0000 -0.0000
vn -0.0000 -0.0000 1.0000
vn -0.1513 0.2867 0.9460
vn -0.4580 0.8679 0.1923
vn -0.3067 0.5812 -0.7537
vn 0.1513 -0.2867 -0.9460
vn 0.4580 -0.8679 -0.1923
vn 0.3067 -0.5812 0.7537
vn -0.8844 -0.4667 -0.0000
vn -0.4667 0.8844 -0.0000
vn 0.4667 -0.8844 -0.0000
vn 0.8844 0.4667 -0.0000
vn 0.1513 -0.2867 0.9460
vn 0.4580 -0.8679 0.1923
vn 0.3067 -0.5812 -0.7537
vn -0.1513 0.2867 -0.9460
vn -0.4580 0.8679 -0.1923
vn -0.3067 0.5812 0.7537
vn 0.3300 -0.6254 0.7071
vn -0.3300 0.6254 0.7071
vn -0.3300 0.6254 -0.7071
vn 0.3300 -0.6254 -0.7071
vt 0.978728 0.065996
vt 0.978728 0.136309
vt 0.927947 0.183184
vt 0.857634 0.183184
vt 0.810759 0.132403
vt 0.810759 0.065996
vt 0.861540 0.015215
vt 0.927947 0.015215
vt 0.963103 0.128496
vt 0.959197 0.073809
vt 0.920134 0.167559
vt 0.865447 0.167559
vt 0.826384 0.128496
vt 0.826384 0.069903
vt 0.865447 0.030840
vt 0.924040 0.030840
vt 0.937899 0.469174
vt 0.976961 0.469174
vt 0.937899 0.492612
vt 0.976961 0.492612
vt 0.937899 0.449643
vt 0.937899 0.531674
vt 0.976961 0.531674
vt 0.976961 0.449643
vt 0.937899 0.512143
vt 0.976961 0.512143
vt 0.995030 0.235544
vt 0.901280 0.235544
vt 0.979112 0.202086
vt 0.995120 0.417416
vt 0.909395 0.234536
vt 0.901370 0.417416
vt 0.979405 0.235544
vt 0.985948 0.214782
vt 0.979495 0.417416
vt 0.917207 0.234536
vt 0.963780 0.235544
vt 0.979112 0.228454
vt 0.963870 0.417416
vt 0.925020 0.234536
vt 0.948155 0.235544
vt 0.963487 0.228454
vt 0.948245 0.417416
vt 0.932832 0.234536
vt 0.932530 0.235544
vt 0.955674 0.214782
vt 0.932620 0.417416
vt 0.940645 0.234536
vt 0.916905 0.235544
vt 0.963487 0.202086
vt 0.948457 0.234536
vt 0.916995 0.417416
vt 0.901582 0.234536
vt 0.801889 0.204544
vt 0.793188 0.087507
vt 0.801889 0.246715
vt 0.759784 0.087507
vt 0.759860 0.246715
vt 0.759784 0.054103
vt 0.759860 0.204544
vt 0.793188 0.054103
vt 0.793188 0.101592
vt 0.796239 0.210674
vt 0.759784 0.101592
vt 0.796239 0.240710
vt 0.759784 0.134997
vt 0.766155 0.240710
vt 0.793188 0.134997
vt 0.766155 0.210674
vt 0.901280 0.235544
vt 0.995030 0.235544
vt 0.979112 0.202086
vt 0.901262 0.413208
vt 0.995012 0.413208
vt 0.909395 0.191567
vt 0.916905 0.235544
vt 0.963487 0.202086
vt 0.916887 0.413208
vt 0.917207 0.191567
vt 0.955674 0.214782
vt 0.932530 0.235544
vt 0.932512 0.413208
vt 0.925020 0.191567
vt 0.948155 0.235544
vt 0.963487 0.228454
vt 0.948137 0.413208
vt 0.932832 0.191567
vt 0.963780 0.235544
vt 0.979112 0.228454
vt 0.963762 0.413208
vt 0.940645 0.191567
vt 0.979405 0.235544
vt 0.985948 0.214782
vt 0.901582 0.191567
vt 0.979387 0.413208
vt 0.948457 0.191567
vt 0.901280 0.235544
vt 0.995030 0.235544
vt 0.963487 0.202086
vt 0.901262 0.413208
vt 0.995012 0.413208
vt 0.909395 0.191567
vt 0.916905 0.235544
vt 0.955674 0.214782
vt 0.916887 0.413208
vt 0.917207 0.191567
vt 0.963487 0.228454
vt 0.932530 0.235544
vt 0.932512 0.413208
vt 0.925020 0.191567
vt 0.948155 0.235544
vt 0.979112 0.228454
vt 0.948137 0.413208
vt 0.932832 0.191567
vt 0.963780 0.235544
vt 0.985948 0.214782
vt 0.963762 0.413208
vt 0.940645 0.191567
vt 0.979405 0.235544
vt 0.979112 0.202086
vt 0.979387 0.413208
vt 0.948457 0.191567
vt 0.901582 0.191567
vt 0.995030 0.235544
vt 0.901280 0.235544
vt 0.963487 0.202086
vt 0.995120 0.417416
vt 0.901370 0.417416
vt 0.909395 0.234536
vt 0.979405 0.235544
vt 0.979112 0.202086
vt 0.979495 0.417416
vt 0.917207 0.234536
vt 0.963780 0.235544
vt 0.985948 0.214782
vt 0.963870 0.417416
vt 0.925020 0.234536
vt 0.948155 0.235544
vt 0.979112 0.228454
vt 0.948245 0.417416
vt 0.932832 0.234536
vt 0.932530 0.235544
vt 0.963487 0.228454
vt 0.940645 0.234536
vt 0.932620 0.417416
vt 0.916905 0.235544
vt 0.955674 0.214782
vt 0.948457 0.234536
vt 0.916995 0.417416
vt 0.901582 0.234536
vt 0.752761 0.087870
vt 0.805656 0.194734
vt 0.759421 0.094530
vt 0.795954 0.203642
vt 0.757470 0.089821
vt 0.796824 0.148844
vt 0.759421 0.047080
vt 0.752761 0.053740
vt 0.806954 0.157671
vt 0.757470 0.051789
vt 0.793552 0.094530
vt 0.760405 0.203389
vt 0.800211 0.087870
vt 0.750148 0.195678
vt 0.795502 0.089821
vt 0.800211 0.053740
vt 0.749838 0.158396
vt 0.758469 0.148856
vt 0.793552 0.047080
vt 0.795502 0.051789
vt 0.800211 0.101229
vt 0.755831 0.192306
vt 0.793552 0.094569
vt 0.762683 0.198359
vt 0.795502 0.099279
vt 0.759421 0.094569
vt 0.793814 0.197987
vt 0.752761 0.101229
vt 0.800112 0.191577
vt 0.757470 0.099278
vt 0.752761 0.135360
vt 0.800860 0.160919
vt 0.759421 0.142020
vt 0.794424 0.154060
vt 0.757470 0.137311
vt 0.793552 0.142020
vt 0.761479 0.154774
vt 0.800211 0.135360
vt 0.754866 0.160722
vt 0.795502 0.137311
vt 0.979387 0.413208
vt 0.995012 0.413208
vt 0.901262 0.413208
vt 0.963762 0.413208
vt 0.948137 0.413208
vt 0.932512 0.413208
vt 0.916887 0.413208
vt 0.916887 0.413208
vt 0.995012 0.413208
vt 0.901262 0.413208
vt 0.932512 0.413208
vt 0.948137 0.413208
vt 0.963762 0.413208
vt 0.979387 0.413208
vt 0.916887 0.413208
vt 0.995012 0.413208
vt 0.901262 0.413208
vt 0.932512 0.413208
vt 0.948137 0.413208
vt 0.963762 0.413208
vt 0.979387 0.413208
vt 0.979387 0.413208
vt 0.995012 0.413208
vt 0.901262 0.413208
vt 0.963762 0.413208
vt 0.948137 0.413208
vt 0.932512 0.413208
vt 0.916887 0.413208
vt 0.917207 0.191567
vt 0.909395 0.191567
vt 0.925020 0.191567
vt 0.932832 0.191567
vt 0.940645 0.191567
vt 0.948457 0.191567
vt 0.901582 0.191567
vt 0.917207 0.234536
vt 0.909395 0.234536
vt 0.925020 0.234536
vt 0.932832 0.234536
vt 0.940645 0.234536
vt 0.948457 0.234536
vt 0.901582 0.234536
vt 0.917207 0.234536
vt 0.909395 0.234536
vt 0.925020 0.234536
vt 0.932832 0.234536
vt 0.940645 0.234536
vt 0.901582 0.234536
vt 0.948457 0.234536
vt 0.917207 0.191567
vt 0.909395 0.191567
vt 0.925020 0.191567
vt 0.932832 0.191567
vt 0.940645 0.191567
vt 0.948457 0.191567
vt 0.901582 0.191567
s 0
usemtl Material.002
f 10/10/1 11/11/1 13/13/1
f 9/9/2 1/1/2 2/2/2
f 9/9/3 3/3/3 11/11/3
f 11/11/4 4/4/4 12/12/4
f 12/12/5 5/5/5 13/13/5
f 13/13/6 6/6/6 14/14/6
f 14/14/7 7/7/7 15/15/7
f 15/15/8 8/8/8 16/16/8
f 10/10/9 8/8/9 1/1/9
f 18/18/10 19/19/10 17/17/10
f 20/20/11 23/25/11 19/19/11
f 24/26/12 21/22/12 23/25/12
f 22/24/13 17/17/13 21/21/13
f 106/192/14 27/33/14 25/27/14
f 105/191/15 29/37/15 27/33/15
f 107/194/16 31/41/16 29/37/16
f 31/41/17 109/196/17 33/45/17
f 28/36/17 130/220/17 129/219/17
f 109/196/18 35/49/18 33/45/18
f 110/197/19 25/28/19 35/49/19
f 31/42/20 33/46/20 35/50/20
f 103/188/20 104/190/20 44/68/20
f 81/152/11 99/182/11 85/159/11
f 100/184/21 91/168/21 84/156/21
f 103/189/13 88/164/13 90/167/13
f 94/173/20 95/175/20 41/62/20
f 100/183/20 101/185/20 43/66/20
f 97/178/20 98/180/20 42/64/20
f 44/69/22 39/58/22 40/60/22
f 42/65/21 37/54/21 38/56/21
f 90/166/23 88/163/23 37/55/23
f 81/151/23 85/158/23 39/59/23
f 37/54/11 44/69/11 40/60/11
f 39/58/13 42/65/13 38/56/13
f 84/157/23 91/169/23 40/61/23
f 87/161/23 82/153/23 38/57/23
f 47/76/24 112/200/24 45/70/24
f 47/76/25 113/201/25 111/198/25
f 51/84/26 113/201/26 49/81/26
f 53/88/27 114/202/27 51/84/27
f 78/144/18 152/245/18 80/148/18
f 55/92/28 115/203/28 53/88/28
f 45/71/29 116/204/29 55/92/29
f 51/85/20 49/80/20 47/77/20
f 59/103/27 118/207/27 57/97/27
f 59/103/28 119/208/28 117/205/28
f 63/111/29 119/208/29 61/108/29
f 63/111/24 121/210/24 120/209/24
f 48/79/28 137/228/28 135/226/28
f 67/119/25 121/210/25 65/115/25
f 57/98/26 122/211/26 67/119/26
f 63/112/20 61/107/20 59/104/20
f 69/124/17 123/212/17 71/130/17
f 123/212/18 73/134/18 71/130/18
f 125/215/19 75/138/19 73/134/19
f 75/138/14 127/217/14 77/142/14
f 64/114/26 143/235/26 62/110/26
f 77/142/15 128/218/15 79/146/15
f 128/218/16 69/125/16 79/146/16
f 77/143/20 79/147/20 71/131/20
f 81/151/23 83/155/23 82/153/23
f 84/157/23 86/160/23 85/158/23
f 87/161/23 89/165/23 88/163/23
f 90/166/23 92/170/23 91/169/23
f 93/171/20 95/175/20 94/173/20
f 96/176/20 98/180/20 97/178/20
f 99/181/20 101/185/20 100/183/20
f 102/186/20 104/190/20 103/188/20
f 87/162/30 93/172/30 94/174/30
f 102/187/31 90/167/31 91/168/31
f 85/159/32 100/184/32 84/156/32
f 96/177/33 81/152/33 82/154/33
f 94/174/22 82/154/22 87/162/22
f 28/35/23 106/192/23 26/30/23
f 28/35/23 107/194/23 105/191/23
f 32/43/23 107/194/23 30/39/23
f 34/47/23 108/195/23 32/43/23
f 36/52/23 109/196/23 34/47/23
f 26/32/23 110/197/23 36/52/23
f 46/73/23 111/198/23 48/78/23
f 48/78/23 113/201/23 50/82/23
f 52/86/23 113/201/23 114/202/23
f 54/90/23 114/202/23 115/203/23
f 56/95/23 115/203/23 116/204/23
f 46/74/23 116/204/23 112/199/23
f 60/105/23 118/207/23 117/205/23
f 60/105/23 119/208/23 62/109/23
f 64/113/23 119/208/23 120/209/23
f 66/117/23 120/209/23 121/210/23
f 68/121/23 121/210/23 122/211/23
f 58/101/23 122/211/23 118/206/23
f 72/132/23 124/213/23 70/127/23
f 72/132/23 125/215/23 123/212/23
f 76/140/23 125/215/23 74/136/23
f 78/145/23 126/216/23 76/140/23
f 78/145/23 128/218/23 127/217/23
f 80/149/23 124/214/23 128/218/23
f 64/114/27 145/237/27 144/236/27
f 50/83/29 138/229/29 137/228/29
f 70/129/19 152/246/19 148/241/19
f 28/36/18 131/221/18 30/40/18
f 68/122/28 145/237/28 66/118/28
f 52/87/24 139/230/24 138/229/24
f 32/44/19 131/221/19 132/222/19
f 68/123/29 142/234/29 146/238/29
f 56/96/25 139/230/25 54/91/25
f 32/44/14 133/223/14 34/48/14
f 70/129/14 147/240/14 72/133/14
f 46/75/26 140/232/26 56/94/26
f 34/48/15 134/224/15 36/51/15
f 74/137/15 147/240/15 149/242/15
f 60/106/24 142/234/24 58/102/24
f 36/53/16 130/220/16 26/31/16
f 76/141/16 149/242/16 150/243/16
f 60/106/25 143/235/25 141/233/25
f 46/75/27 135/226/27 136/227/27
f 76/141/17 151/244/17 78/144/17
f 10/10/1 9/9/1 11/11/1
f 11/11/1 12/12/1 13/13/1
f 13/13/1 14/14/1 10/10/1
f 14/14/1 15/15/1 10/10/1
f 15/15/1 16/16/1 10/10/1
f 9/9/2 10/10/2 1/1/2
f 9/9/3 2/2/3 3/3/3
f 11/11/4 3/3/4 4/4/4
f 12/12/5 4/4/5 5/5/5
f 13/13/6 5/5/6 6/6/6
f 14/14/7 6/6/7 7/7/7
f 15/15/8 7/7/8 8/8/8
f 10/10/9 16/16/9 8/8/9
f 18/18/10 20/20/10 19/19/10
f 20/20/11 24/26/11 23/25/11
f 24/26/12 22/23/12 21/22/12
f 22/24/13 18/18/13 17/17/13
f 106/192/14 105/191/14 27/33/14
f 105/191/15 107/194/15 29/37/15
f 107/194/16 108/195/16 31/41/16
f 31/41/17 108/195/17 109/196/17
f 28/36/17 26/31/17 130/220/17
f 109/196/18 110/197/18 35/49/18
f 110/197/19 106/193/19 25/28/19
f 35/50/20 25/29/20 31/42/20
f 25/29/20 27/34/20 31/42/20
f 27/34/20 29/38/20 31/42/20
f 44/68/20 41/62/20 103/188/20
f 41/62/20 95/175/20 93/171/20
f 103/188/20 41/62/20 93/171/20
f 81/152/11 97/179/11 99/182/11
f 100/184/21 102/187/21 91/168/21
f 103/189/13 93/172/13 88/164/13
f 41/62/20 42/64/20 94/173/20
f 42/64/20 98/180/20 96/176/20
f 94/173/20 42/64/20 96/176/20
f 43/66/20 44/68/20 100/183/20
f 44/68/20 104/190/20 102/186/20
f 100/183/20 44/68/20 102/186/20
f 42/64/20 43/66/20 97/178/20
f 43/66/20 101/185/20 99/181/20
f 97/178/20 43/66/20 99/181/20
f 44/69/22 43/67/22 39/58/22
f 42/65/21 41/63/21 37/54/21
f 89/165/23 37/55/23 88/163/23
f 37/55/23 40/61/23 90/166/23
f 40/61/23 92/170/23 90/166/23
f 86/160/23 39/59/23 85/158/23
f 39/59/23 38/57/23 81/151/23
f 38/57/23 83/155/23 81/151/23
f 37/54/11 41/63/11 44/69/11
f 39/58/13 43/67/13 42/65/13
f 92/170/23 40/61/23 91/169/23
f 40/61/23 39/59/23 84/157/23
f 39/59/23 86/160/23 84/157/23
f 83/155/23 38/57/23 82/153/23
f 38/57/23 37/55/23 87/161/23
f 37/55/23 89/165/23 87/161/23
f 47/76/24 111/198/24 112/200/24
f 47/76/25 49/81/25 113/201/25
f 51/84/26 114/202/26 113/201/26
f 53/88/27 115/203/27 114/202/27
f 78/144/18 151/244/18 152/245/18
f 55/92/28 116/204/28 115/203/28
f 45/71/29 112/199/29 116/204/29
f 47/77/20 45/72/20 55/93/20
f 55/93/20 53/89/20 47/77/20
f 53/89/20 51/85/20 47/77/20
f 59/103/27 117/205/27 118/207/27
f 59/103/28 61/108/28 119/208/28
f 63/111/29 120/209/29 119/208/29
f 63/111/24 65/115/24 121/210/24
f 48/79/28 50/83/28 137/228/28
f 67/119/25 122/211/25 121/210/25
f 57/98/26 118/206/26 122/211/26
f 59/104/20 57/99/20 63/112/20
f 57/99/20 67/120/20 63/112/20
f 67/120/20 65/116/20 63/112/20
f 69/124/17 124/213/17 123/212/17
f 123/212/18 125/215/18 73/134/18
f 125/215/19 126/216/19 75/138/19
f 75/138/14 126/216/14 127/217/14
f 64/114/26 144/236/26 143/235/26
f 77/142/15 127/217/15 128/218/15
f 128/218/16 124/214/16 69/125/16
f 79/147/20 69/126/20 71/131/20
f 71/131/20 73/135/20 75/139/20
f 75/139/20 77/143/20 71/131/20
f 87/162/30 88/164/30 93/172/30
f 102/187/31 103/189/31 90/167/31
f 85/159/32 99/182/32 100/184/32
f 96/177/33 97/179/33 81/152/33
f 94/174/22 96/177/22 82/154/22
f 28/35/23 105/191/23 106/192/23
f 28/35/23 30/39/23 107/194/23
f 32/43/23 108/195/23 107/194/23
f 34/47/23 109/196/23 108/195/23
f 36/52/23 110/197/23 109/196/23
f 26/32/23 106/193/23 110/197/23
f 46/73/23 112/200/23 111/198/23
f 48/78/23 111/198/23 113/201/23
f 52/86/23 50/82/23 113/201/23
f 54/90/23 52/86/23 114/202/23
f 56/95/23 54/90/23 115/203/23
f 46/74/23 56/95/23 116/204/23
f 60/105/23 58/100/23 118/207/23
f 60/105/23 117/205/23 119/208/23
f 64/113/23 62/109/23 119/208/23
f 66/117/23 64/113/23 120/209/23
f 68/121/23 66/117/23 121/210/23
f 58/101/23 68/121/23 122/211/23
f 72/132/23 123/212/23 124/213/23
f 72/132/23 74/136/23 125/215/23
f 76/140/23 126/216/23 125/215/23
f 78/145/23 127/217/23 126/216/23
f 78/145/23 80/149/23 128/218/23
f 80/149/23 70/128/23 124/214/23
f 64/114/27 66/118/27 145/237/27
f 50/83/29 52/87/29 138/229/29
f 70/129/19 80/150/19 152/246/19
f 28/36/18 129/219/18 131/221/18
f 68/122/28 146/239/28 145/237/28
f 52/87/24 54/91/24 139/230/24
f 32/44/19 30/40/19 131/221/19
f 68/123/29 58/102/29 142/234/29
f 56/96/25 140/231/25 139/230/25
f 32/44/14 132/222/14 133/223/14
f 70/129/14 148/241/14 147/240/14
f 46/75/26 136/227/26 140/232/26
f 34/48/15 133/223/15 134/224/15
f 74/137/15 72/133/15 147/240/15
f 60/106/24 141/233/24 142/234/24
f 36/53/16 134/225/16 130/220/16
f 76/141/16 74/137/16 149/242/16
f 60/106/25 62/110/25 143/235/25
f 46/75/27 48/79/27 135/226/27
f 76/141/17 150/243/17 151/244/17
